<svg width="806" height="758" viewBox="0 0 806 758" fill="none" xmlns="http://www.w3.org/2000/svg">
<path d="M372.087 298.152C397.074 286.245 429.046 302.026 443.663 332.693L444.001 333.411C458.131 363.803 450.186 398.134 425.396 409.948C400.433 421.907 368.461 406.124 353.845 375.509V375.508C339.228 344.84 347.1 310.06 372.087 298.152Z" fill="black" stroke="white" stroke-width="2"/>
<path d="M498.748 227.455C539.021 328.888 511.73 461.237 474.522 568.031C455.906 621.464 434.782 668.57 418.312 702.317C410.076 719.192 403.003 732.728 397.988 742.048C395.481 746.708 393.488 750.314 392.121 752.756C391.438 753.976 390.911 754.906 390.555 755.531C390.377 755.844 390.241 756.081 390.149 756.239C390.104 756.318 390.07 756.378 390.047 756.418C390.035 756.438 390.026 756.454 390.021 756.464C390.018 756.469 390.015 756.473 390.014 756.476L389.146 755.978L390.012 756.479L389.723 756.978H306.073L307.028 755.448L307.876 755.978C307.028 755.448 307.028 755.448 307.029 755.446C307.03 755.444 307.032 755.442 307.034 755.438C307.039 755.431 307.045 755.42 307.055 755.405C307.073 755.375 307.101 755.33 307.138 755.27C307.212 755.148 307.323 754.966 307.468 754.724C307.758 754.239 308.187 753.513 308.734 752.557C309.83 750.644 311.402 747.806 313.306 744.12C317.113 736.747 322.244 725.979 327.526 712.414C338.093 685.281 349.263 646.977 351.683 602.284C356.519 512.958 326.42 397.973 186.319 295.528L187.2 293.765C259.601 315.75 317.286 363.148 356.849 404.998C376.635 425.929 391.903 445.487 402.226 459.815C407.387 466.98 411.313 472.838 413.95 476.907C415.269 478.942 416.265 480.529 416.933 481.609C417.047 481.794 417.15 481.965 417.245 482.12C417.325 482.032 417.412 481.94 417.502 481.84C418.253 481.008 419.354 479.765 420.748 478.13C423.537 474.86 427.499 470.022 432.183 463.758C441.55 451.228 453.801 432.997 465.322 410.208C488.369 364.624 508.473 300.854 496.831 227.982L498.748 227.455Z" fill="black" stroke="white" stroke-width="2"/>
<path d="M313.681 193.313L313.453 194.287C313.677 193.332 313.681 193.314 313.682 193.313H313.683C313.684 193.314 313.685 193.314 313.687 193.314C313.69 193.315 313.694 193.316 313.699 193.317C313.71 193.32 313.726 193.324 313.745 193.329C313.784 193.339 313.841 193.352 313.914 193.371C314.061 193.409 314.275 193.465 314.548 193.541C315.094 193.693 315.88 193.926 316.846 194.249C318.776 194.895 321.434 195.908 324.354 197.37C329.994 200.195 336.7 204.747 340.962 211.688L341.367 212.368L341.368 212.371C347.488 223.042 346.055 235.901 344.88 242.056L344.318 244.999L343 242.308C341.762 239.782 340.43 237.145 338.901 234.462C335.219 228.14 331.251 222.75 328.202 218.939C327.502 218.065 326.85 217.275 326.263 216.576C326.571 217.434 326.925 218.392 327.329 219.434C329.093 223.981 331.778 230.116 335.458 236.472L336.052 237.478C337.437 239.8 338.822 241.941 340.189 243.971L341.874 246.471L339.029 245.474C333.133 243.406 321.27 238.211 315.147 227.538L314.761 226.847C310.876 219.675 310.288 211.582 310.665 205.279C310.86 202.016 311.315 199.206 311.722 197.209C311.925 196.21 312.117 195.412 312.259 194.862C312.33 194.588 312.389 194.375 312.43 194.229C312.45 194.155 312.466 194.098 312.478 194.06C312.483 194.04 312.488 194.025 312.491 194.015C312.493 194.01 312.493 194.006 312.494 194.003C312.495 194.001 312.496 194 312.496 193.999V193.998C312.496 193.998 312.496 193.997 313.327 194.249L312.496 193.997L312.769 193.1L313.681 193.313Z" fill="black" stroke="white" stroke-width="2"/>
<path d="M582.156 349.475C582.872 348.806 582.887 348.793 582.887 348.792L582.883 348.788C582.881 348.786 582.878 348.782 582.874 348.778C582.867 348.77 582.855 348.76 582.842 348.745C582.814 348.716 582.774 348.673 582.721 348.619C582.615 348.51 582.46 348.353 582.258 348.154C581.854 347.757 581.261 347.192 580.5 346.517C578.978 345.166 576.777 343.368 574.054 341.568C568.623 337.98 561.026 334.33 552.548 334.33C540.279 334.33 529.85 341.996 525.102 346.081L522.809 348.054L525.826 347.836C528.626 347.634 531.54 347.483 534.677 347.483C542.016 347.483 548.688 348.213 553.527 348.943C554.624 349.109 555.626 349.275 556.52 349.432C555.625 349.591 554.623 349.761 553.525 349.929C548.687 350.668 542.016 351.403 534.679 351.391H534.638C531.503 351.515 528.635 351.342 525.826 351.14L522.809 350.922L525.102 352.895C529.85 356.979 540.279 364.645 552.548 364.646C561.014 364.646 568.612 360.989 574.045 357.395C576.77 355.592 578.974 353.789 580.497 352.437C581.259 351.76 581.852 351.195 582.257 350.797C582.459 350.598 582.615 350.44 582.721 350.331C582.774 350.277 582.814 350.234 582.842 350.205C582.856 350.191 582.866 350.179 582.874 350.171L582.887 350.158L582.156 349.475ZM582.156 349.475L582.887 350.157L583.524 349.475L582.887 348.793L582.156 349.475Z" fill="black" stroke="white" stroke-width="2"/>
<path d="M493.605 194.049L493.606 194.051C493.607 194.052 493.607 194.053 493.607 194.054C493.608 194.057 493.61 194.061 493.611 194.066C493.614 194.077 493.618 194.092 493.624 194.111C493.635 194.15 493.652 194.207 493.672 194.28C493.713 194.427 493.771 194.64 493.841 194.915C493.981 195.466 494.17 196.264 494.371 197.265C494.773 199.264 495.221 202.079 495.408 205.347C495.781 211.862 495.123 220.288 490.878 227.638L490.877 227.637C484.78 238.233 472.944 243.454 466.967 245.523L464.065 246.527L465.818 244.007C467.423 241.701 469.006 239.189 470.567 236.52C474.247 230.164 476.937 224.016 478.708 219.456C479.121 218.392 479.483 217.414 479.797 216.541C479.201 217.247 478.54 218.048 477.829 218.936C474.775 222.748 470.807 228.149 467.151 234.506L467.146 234.515C465.568 237.196 464.215 239.827 463.062 242.356L461.764 245.209L461.171 242.131C459.97 235.896 458.587 223.063 464.708 212.443L464.709 212.441C468.929 205.141 475.894 200.378 481.724 197.45C484.648 195.982 487.312 194.963 489.246 194.311C490.214 193.984 491 193.748 491.548 193.594C491.822 193.517 492.036 193.46 492.184 193.422C492.257 193.403 492.314 193.389 492.354 193.379C492.373 193.374 492.388 193.37 492.398 193.367C492.404 193.366 492.408 193.365 492.411 193.364C492.413 193.364 492.414 193.364 492.415 193.363H492.416C492.416 193.363 492.416 193.363 492.634 194.28L492.417 193.363L493.335 193.146L493.605 194.049Z" fill="black" stroke="white" stroke-width="2"/>
<path d="M403.696 50.3584L403.697 50.3594L403.698 50.3604C403.699 50.3615 403.702 50.3632 403.704 50.3652C403.708 50.3694 403.715 50.3761 403.723 50.3838C403.739 50.3992 403.763 50.4217 403.794 50.4512C403.856 50.5104 403.946 50.5982 404.063 50.7129C404.299 50.9426 404.642 51.2816 405.077 51.7256C405.947 52.6137 407.187 53.9203 408.673 55.6006C411.644 58.9603 415.603 63.8205 419.563 69.8281C427.473 81.8264 435.445 98.4922 435.445 116.971C435.445 143.815 418.681 166.74 409.573 177.247L407.573 179.555L407.82 176.512C408.326 170.298 408.654 163.734 408.654 156.795C408.654 140.395 407 125.529 405.345 114.762C404.517 109.38 403.69 105.025 403.07 102.018C403.051 101.926 403.031 101.836 403.013 101.747C402.995 101.833 402.976 101.921 402.958 102.01C402.341 105.013 401.517 109.363 400.692 114.742C399.044 125.503 397.396 140.369 397.396 156.795C397.396 163.76 397.725 170.3 398.18 176.52L398.4 179.536L396.425 177.245C387.345 166.715 370.579 143.816 370.579 116.971C370.579 98.4922 378.551 81.8264 386.461 69.8281C390.421 63.8205 394.381 58.9603 397.352 55.6006C398.837 53.9203 400.077 52.6138 400.947 51.7256C401.382 51.2816 401.726 50.9426 401.961 50.7129C402.078 50.5982 402.169 50.5104 402.23 50.4512C402.261 50.4217 402.285 50.3992 402.302 50.3838C402.31 50.3761 402.316 50.3694 402.32 50.3652C402.323 50.3632 402.325 50.3615 402.326 50.3604L402.327 50.3594C402.328 50.3589 402.329 50.3585 403.013 51.0879L402.328 50.3584L403.013 49.7168L403.696 50.3584Z" fill="black" stroke="white" stroke-width="2"/>
<path d="M144.652 200.295L143.679 200.522V200.524C143.679 200.526 143.68 200.528 143.681 200.531C143.682 200.537 143.684 200.546 143.687 200.557C143.692 200.578 143.7 200.611 143.71 200.652C143.73 200.736 143.76 200.858 143.801 201.018C143.882 201.336 144.004 201.803 144.171 202.402C144.504 203.601 145.014 205.33 145.725 207.458C147.146 211.714 149.371 217.578 152.589 224.016C159.015 236.872 169.451 252.113 185.446 261.34H185.447C208.718 274.762 236.914 271.68 250.573 269.061L253.599 268.48L250.809 267.173C245.209 264.55 239.327 261.471 233.341 258.035H233.34C219.125 249.842 207.077 240.989 198.581 234.183C194.334 230.78 190.977 227.891 188.684 225.854C188.615 225.794 188.549 225.733 188.482 225.674C188.567 225.702 188.652 225.729 188.738 225.758C191.649 226.724 195.83 228.183 200.901 230.156C211.045 234.104 224.742 240.103 238.957 248.309V248.31C244.966 251.794 250.496 255.329 255.646 258.889L258.149 260.618L257.16 257.741C252.702 244.768 241.557 219.413 218.987 205.82L217.904 205.183C201.922 195.931 183.508 194.494 169.163 195.339C161.98 195.762 155.79 196.759 151.394 197.65C149.195 198.096 147.443 198.517 146.238 198.826C145.636 198.981 145.17 199.108 144.854 199.196C144.695 199.241 144.574 199.276 144.492 199.3C144.451 199.312 144.419 199.321 144.397 199.327C144.387 199.33 144.379 199.333 144.373 199.335C144.37 199.336 144.368 199.336 144.366 199.337H144.364C144.364 199.337 144.363 199.338 144.652 200.295ZM144.652 200.295L143.679 200.521L143.466 199.608L144.363 199.338L144.652 200.295Z" fill="black" stroke="white" stroke-width="2"/>
<path d="M661.373 498.656C662.347 498.428 662.347 498.427 662.347 498.427L662.346 498.425C662.345 498.423 662.345 498.421 662.345 498.418C662.343 498.412 662.34 498.404 662.338 498.394C662.333 498.372 662.326 498.339 662.315 498.298C662.295 498.215 662.264 498.092 662.224 497.933C662.142 497.614 662.02 497.147 661.853 496.548C661.518 495.35 661.006 493.622 660.293 491.495C658.867 487.241 656.637 481.381 653.414 474.947C646.978 462.098 636.536 446.863 620.554 437.637L620.553 437.636C597.309 424.24 569.113 427.27 555.452 429.891L552.437 430.469L555.215 431.777C560.839 434.425 566.695 437.504 572.708 440.939V440.94C586.912 449.147 598.962 458 607.461 464.804C611.71 468.205 615.069 471.091 617.364 473.126C617.432 473.186 617.498 473.245 617.563 473.304C617.481 473.276 617.396 473.251 617.312 473.223C614.401 472.259 610.218 470.802 605.146 468.832C594.999 464.891 581.297 458.898 567.07 450.693H567.071C561.06 447.183 555.53 443.648 550.406 440.089L547.897 438.347L548.891 441.235C553.419 454.414 564.85 480.345 588.095 493.768C604.077 503.02 622.498 504.457 636.85 503.612C644.036 503.189 650.229 502.192 654.628 501.301C656.828 500.855 658.581 500.434 659.786 500.125C660.389 499.97 660.855 499.844 661.172 499.755C661.33 499.711 661.451 499.675 661.533 499.651C661.574 499.639 661.606 499.63 661.628 499.624C661.638 499.621 661.647 499.618 661.652 499.616C661.655 499.615 661.658 499.615 661.659 499.614H661.661C661.662 499.614 661.662 499.614 661.373 498.656ZM661.373 498.656L661.662 499.613L662.561 499.343L662.347 498.429L661.373 498.656Z" fill="black" stroke="white" stroke-width="2"/>
<path d="M144.576 498.681C144.287 499.638 144.287 499.638 144.288 499.639H144.29C144.292 499.639 144.294 499.64 144.297 499.641C144.303 499.642 144.311 499.645 144.321 499.648C144.343 499.655 144.375 499.664 144.416 499.676C144.498 499.7 144.619 499.735 144.777 499.779C145.094 499.868 145.56 499.995 146.162 500.149C147.367 500.459 149.119 500.879 151.317 501.325C155.714 502.218 161.905 503.216 169.09 503.643C183.438 504.494 201.858 503.07 217.854 493.844L217.854 493.843C241.15 480.37 252.581 454.44 257.109 441.312L258.093 438.462L255.601 440.159C250.445 443.672 244.939 447.208 238.929 450.718C224.714 458.898 211.012 464.903 200.862 468.863C195.788 470.843 191.603 472.311 188.689 473.283C188.606 473.311 188.522 473.337 188.44 473.364C188.504 473.308 188.568 473.25 188.633 473.192C190.926 471.153 194.283 468.26 198.53 464.853C207.026 458.037 219.076 449.171 233.292 440.965L233.295 440.963C239.321 437.458 245.176 434.505 250.793 431.798L253.508 430.489L250.55 429.915C236.914 427.269 208.667 424.187 185.421 437.66C169.426 446.887 158.977 462.122 152.538 474.972C149.314 481.406 147.083 487.266 145.657 491.52C144.944 493.647 144.432 495.374 144.098 496.572C143.93 497.171 143.807 497.638 143.726 497.957C143.685 498.116 143.654 498.239 143.634 498.322C143.624 498.363 143.617 498.395 143.611 498.417C143.609 498.428 143.606 498.437 143.604 498.442C143.604 498.445 143.604 498.448 143.604 498.449L143.603 498.451C143.602 498.452 143.603 498.453 144.576 498.681ZM144.576 498.681L144.287 499.638L143.389 499.366L143.603 498.453L144.576 498.681Z" fill="black" stroke="white" stroke-width="2"/>
<path d="M661.424 200.243C661.707 199.306 661.712 199.286 661.712 199.285H661.71C661.708 199.285 661.706 199.283 661.703 199.282C661.697 199.28 661.688 199.279 661.678 199.275C661.656 199.269 661.625 199.26 661.584 199.248C661.502 199.224 661.381 199.189 661.223 199.145C660.906 199.056 660.441 198.93 659.839 198.775C658.635 198.467 656.884 198.047 654.687 197.603C650.293 196.713 644.105 195.718 636.925 195.297C622.586 194.455 604.179 195.892 588.197 205.131L587.113 205.769C564.52 219.361 553.349 244.714 548.915 257.639L547.937 260.493L550.427 258.788C555.554 255.277 561.083 251.743 567.141 248.26L567.143 248.259C581.346 240.052 595.037 234.052 605.179 230.104C610.248 228.131 614.428 226.672 617.338 225.706C617.425 225.677 617.512 225.649 617.597 225.621C617.53 225.68 617.464 225.742 617.396 225.803C615.104 227.839 611.75 230.729 607.505 234.131C599.012 240.937 586.963 249.791 572.734 257.984L572.731 257.985C566.726 261.468 560.845 264.497 555.29 267.123L552.532 268.427L555.526 269.009C569.136 271.654 597.385 274.762 620.581 261.287L620.58 261.286C636.587 252.047 647.035 236.808 653.471 223.955C656.693 217.519 658.923 211.658 660.347 207.404C661.059 205.277 661.57 203.549 661.904 202.351C662.071 201.752 662.194 201.284 662.275 200.966C662.316 200.807 662.346 200.684 662.366 200.601C662.376 200.559 662.384 200.528 662.39 200.506C662.392 200.495 662.394 200.486 662.396 200.48C662.396 200.478 662.396 200.475 662.396 200.474L662.397 200.472L661.424 200.243ZM661.424 200.243L662.397 200.471L662.611 199.557L661.713 199.285L661.424 200.243Z" fill="black" stroke="white" stroke-width="2"/>
<path d="M203.006 3.10156L203.234 2.12793L202.32 1.91406L202.049 2.8125L203.006 3.10156ZM203.006 3.10156C203.23 2.14393 203.235 2.12802 203.235 2.12793C203.236 2.12805 203.237 2.12866 203.238 2.12891C203.24 2.1294 203.243 2.13001 203.247 2.13086C203.255 2.13266 203.266 2.13527 203.28 2.13867C203.309 2.14555 203.351 2.1555 203.406 2.16895C203.517 2.19597 203.679 2.23676 203.892 2.29102C204.317 2.39961 204.941 2.56355 205.741 2.78711C207.342 3.2342 209.652 3.91916 212.498 4.87305C218.189 6.78058 226.031 9.76581 234.641 14.0801C251.841 22.6993 272.201 36.6713 284.533 58.04C302.468 89.0929 298.373 126.795 294.814 145.071L294.233 148.055L292.93 145.31C289.339 137.749 285.321 129.891 280.648 121.859L280.646 121.855C269.639 102.747 257.751 86.5658 248.612 75.1611C244.044 69.4597 240.164 64.9543 237.429 61.876C236.953 61.3411 236.51 60.8517 236.106 60.4043C236.292 60.9788 236.496 61.6085 236.722 62.2891C238.02 66.1994 239.982 71.8144 242.634 78.6221C247.938 92.2394 255.997 110.619 267.017 129.677V129.678C271.691 137.764 276.47 145.195 281.174 152.1L282.878 154.602L280.019 153.607C262.484 147.508 227.756 132.224 209.821 101.146C197.489 79.789 195.57 55.1774 196.703 35.9775C197.271 26.3674 198.605 18.0858 199.797 12.2051C200.393 9.26432 200.954 6.92221 201.367 5.3125C201.574 4.50758 201.743 3.88507 201.861 3.46289C201.92 3.25194 201.967 3.09056 201.999 2.98145C202.015 2.92715 202.027 2.88567 202.035 2.85742C202.039 2.84349 202.043 2.83268 202.045 2.8252L202.049 2.81348C202.053 2.81407 202.114 2.83206 203.006 3.10156Z" fill="black" stroke="white" stroke-width="2"/>
<path d="M603.044 695.899L602.815 696.872L603.729 697.087L604.001 696.189L603.044 695.899ZM603.044 695.899L604.001 696.188L604.002 696.186C604.003 696.183 604.004 696.18 604.005 696.177C604.007 696.169 604.01 696.159 604.015 696.145C604.023 696.116 604.035 696.074 604.051 696.02C604.083 695.91 604.13 695.749 604.189 695.538C604.308 695.116 604.478 694.493 604.686 693.688C605.101 692.076 605.665 689.731 606.265 686.788C607.464 680.903 608.806 672.615 609.382 662.998C610.531 643.785 608.624 619.161 596.279 597.804V597.803L595.854 597.078C577.752 566.513 543.456 551.42 526.03 545.393L523.177 544.406L524.877 546.901C529.584 553.81 534.41 561.215 539.058 569.271C550.091 588.406 558.15 606.799 563.451 620.41C566.101 627.215 568.061 632.821 569.357 636.725C569.581 637.398 569.782 638.022 569.967 638.592C569.563 638.145 569.12 637.655 568.646 637.121C565.909 634.041 562.028 629.534 557.457 623.833C548.598 612.784 537.152 597.259 526.414 578.949L525.378 577.169C520.729 569.083 516.684 561.223 513.094 553.714L511.78 550.966L511.21 553.958C507.728 572.229 503.607 609.856 521.516 640.934L521.517 640.936C533.861 662.291 554.222 676.269 571.419 684.897C580.026 689.216 587.866 692.207 593.555 694.119C596.4 695.075 598.709 695.763 600.31 696.211C601.11 696.435 601.733 696.6 602.158 696.709C602.37 696.763 602.533 696.804 602.644 696.831C602.699 696.845 602.741 696.854 602.77 696.861C602.784 696.865 602.795 696.867 602.803 696.869C602.806 696.87 602.809 696.871 602.812 696.871L602.813 696.872L603.044 695.899Z" fill="black" stroke="white" stroke-width="2"/>
<path d="M3 349.475L2.27148 350.159C2.27185 350.16 2.2727 350.16 2.27344 350.161C2.2749 350.163 2.27666 350.165 2.2793 350.168C2.28464 350.174 2.29265 350.182 2.30273 350.192C2.32304 350.214 2.35332 350.245 2.39258 350.286C2.47125 350.368 2.5879 350.49 2.74121 350.646C3.04782 350.96 3.50167 351.419 4.0957 352.001C5.28371 353.165 7.03198 354.824 9.28125 356.813C13.7793 360.791 20.2864 366.094 28.3252 371.396C44.3854 381.99 66.6531 392.643 91.292 392.63L92.1318 392.626C127.663 392.281 157.902 370.143 171.848 358.063L174.137 356.081L171.117 356.311C162.794 356.943 153.948 357.397 144.652 357.397C122.625 357.397 102.677 355.173 88.2344 352.947C81.0143 351.835 75.1725 350.723 71.1387 349.89C70.4297 349.743 69.7775 349.601 69.1826 349.474C69.7774 349.346 70.4299 349.206 71.1387 349.06C75.1725 348.226 81.0143 347.113 88.2344 346.001C102.677 343.776 122.625 341.552 144.652 341.552C153.996 341.552 162.816 342.056 171.146 342.664L174.145 342.883L171.874 340.911C157.818 328.711 127.212 306.293 91.292 306.293H91.291C66.6399 306.306 44.3725 316.965 28.3154 327.559C20.2784 332.861 13.7743 338.161 9.27832 342.138C7.02999 344.126 5.28216 345.785 4.09473 346.948C3.501 347.53 3.04666 347.988 2.74023 348.302C2.58707 348.459 2.4712 348.58 2.39258 348.662C2.35329 348.703 2.32305 348.734 2.30273 348.756C2.29263 348.767 2.28466 348.775 2.2793 348.78C2.27672 348.783 2.27491 348.786 2.27344 348.787C2.27273 348.788 2.27186 348.789 2.27148 348.789C2.27098 348.79 2.27067 348.79 3 349.475ZM3 349.475L2.27051 350.158L1.62891 349.475L2.27051 348.79L3 349.475Z" fill="black" stroke="white" stroke-width="2"/>
<path d="M803 349.576C803.687 348.933 803.727 348.894 803.729 348.892C803.728 348.891 803.727 348.89 803.727 348.89C803.725 348.888 803.723 348.886 803.721 348.883C803.715 348.877 803.707 348.869 803.697 348.858C803.677 348.837 803.647 348.805 803.607 348.764C803.529 348.681 803.413 348.56 803.26 348.403C802.953 348.089 802.499 347.631 801.905 347.048C800.718 345.882 798.971 344.221 796.723 342.229C792.227 338.247 785.724 332.939 777.688 327.632C761.635 317.029 739.373 306.37 714.733 306.396H714.732C678.864 306.396 648.259 328.71 634.176 340.963L631.9 342.942L634.907 342.715C643.258 342.082 652.103 341.603 661.37 341.628H661.373C683.413 341.628 703.362 343.845 717.801 346.064C725.019 347.174 730.858 348.283 734.89 349.114C735.595 349.26 736.245 349.399 736.838 349.526C736.245 349.654 735.596 349.795 734.891 349.94C730.86 350.774 725.022 351.886 717.807 352.998C703.374 355.223 683.439 357.448 661.424 357.448C652.104 357.448 643.257 356.968 634.904 356.36L631.901 356.143L634.178 358.114C648.233 370.289 678.865 392.681 714.733 392.681C739.397 392.681 761.658 382.041 777.706 371.464C785.738 366.17 792.237 360.876 796.729 356.904C798.975 354.918 800.721 353.262 801.907 352.1C802.5 351.519 802.954 351.06 803.26 350.747C803.413 350.59 803.529 350.47 803.607 350.388C803.647 350.347 803.677 350.315 803.697 350.294C803.707 350.284 803.714 350.275 803.72 350.27L803.729 350.261L803 349.576ZM803 349.576L803.729 350.26L804.37 349.576L803.729 348.893L803 349.576Z" fill="black" stroke="white" stroke-width="2"/>
<path d="M202.98 695.949L202.023 696.239L202.295 697.138L203.209 696.924L202.98 695.949ZM202.98 695.949C203.208 696.923 203.209 696.923 203.21 696.923C203.211 696.923 203.212 696.923 203.213 696.923C203.215 696.922 203.218 696.921 203.222 696.92C203.229 696.918 203.24 696.915 203.254 696.912C203.283 696.905 203.326 696.895 203.381 696.882C203.491 696.855 203.654 696.814 203.866 696.76C204.291 696.651 204.916 696.487 205.717 696.264C207.319 695.817 209.63 695.132 212.477 694.179C218.17 692.272 226.014 689.286 234.627 684.974C251.833 676.358 272.201 662.393 284.533 641.036L284.95 640.307C302.43 609.37 298.371 572.088 294.865 554.006L294.298 551.078L292.985 553.756C289.317 561.244 285.297 569.031 280.672 577.195C269.652 596.278 257.757 612.454 248.615 623.858C244.045 629.56 240.165 634.067 237.429 637.146C236.952 637.683 236.507 638.174 236.103 638.623C236.288 638.048 236.492 637.417 236.718 636.735C238.014 632.824 239.973 627.208 242.621 620.397C247.919 606.774 255.971 588.38 266.991 569.297C271.691 561.261 276.47 553.855 281.2 546.873L282.889 544.381L280.045 545.368C262.595 551.42 228.272 566.538 210.219 597.129L209.796 597.854C197.451 619.211 195.532 643.835 196.669 663.048C197.238 672.664 198.573 680.952 199.768 686.838C200.365 689.781 200.927 692.126 201.341 693.737C201.548 694.543 201.717 695.165 201.836 695.588C201.895 695.799 201.942 695.96 201.974 696.069C201.99 696.124 202.001 696.166 202.01 696.194C202.014 696.208 202.017 696.219 202.02 696.227C202.021 696.23 202.022 696.233 202.022 696.235L202.023 696.237C202.028 696.237 202.093 696.217 202.98 695.949Z" fill="black" stroke="white" stroke-width="2"/>
<path d="M604.001 2.71094L603.044 3C603.993 2.71344 604.002 2.71124 604.002 2.71191C604.002 2.71243 604.002 2.71381 604.002 2.71484C604.003 2.7169 604.004 2.71998 604.005 2.72363C604.007 2.73113 604.01 2.74187 604.015 2.75586C604.023 2.78421 604.036 2.82622 604.052 2.88086C604.084 2.99011 604.129 3.15139 604.188 3.3623C604.307 3.78502 604.477 4.40796 604.684 5.21387C605.097 6.82564 605.66 9.17079 606.257 12.1152C607.451 18.0031 608.787 26.2943 609.356 35.9141C610.493 55.1326 608.573 79.7626 596.229 101.119C578.319 132.172 543.593 147.482 526.03 153.557L523.177 154.544L524.877 152.049C529.58 145.146 534.358 137.663 539.009 129.65C550.041 110.581 558.1 92.2008 563.4 78.5869C566.05 71.781 568.01 66.169 569.307 62.2607C569.533 61.5793 569.735 60.9482 569.921 60.373C569.516 60.8215 569.072 61.3132 568.596 61.8496C565.86 64.9272 561.982 69.4316 557.413 75.1299C548.275 86.5283 536.385 102.696 525.378 121.779L525.377 121.781C520.679 129.889 516.686 137.749 513.04 145.218L511.728 147.905L511.159 144.969C507.626 126.72 503.506 89.0163 521.518 57.9375C533.862 36.5821 554.222 22.6105 571.419 13.9883C580.027 9.67246 587.867 6.68491 593.556 4.77539C596.401 3.82054 598.709 3.13424 600.31 2.68652C601.11 2.46264 601.733 2.29823 602.158 2.18945C602.37 2.13512 602.533 2.09543 602.644 2.06836C602.699 2.05486 602.741 2.044 602.77 2.03711C602.784 2.03367 602.795 2.0311 602.803 2.0293C602.806 2.02842 602.809 2.02784 602.812 2.02734C602.813 2.0271 602.814 2.02649 602.814 2.02637C602.815 2.02669 602.819 2.04534 602.986 2.75586L602.815 2.02637L603.729 1.81152L604.001 2.71094Z" fill="black" stroke="white" stroke-width="2"/>
</svg>
